{
  "asset": { "generator": "ThreeNative conformance fixture", "version": "2.0" },
  "scene": 0,
  "scenes": [{ "nodes": [0] }],
  "nodes": [{ "mesh": 0, "name": "RockLow" }],
  "meshes": [{
    "name": "RockLow",
    "primitives": [{
      "attributes": { "POSITION": 0, "NORMAL": 1 },
      "indices": 2,
      "material": 0
    }]
  }],
  "materials": [{
    "name": "RockLowGray",
    "pbrMetallicRoughness": {
      "baseColorFactor": [0.36, 0.42, 0.46, 1],
      "metallicFactor": 0,
      "roughnessFactor": 1
    }
  }],
  "buffers": [{
    "byteLength": 120,
    "uri": "data:application/octet-stream;base64,"
  }],
  "bufferViews": [
    { "buffer": 0, "byteLength": 48, "byteOffset": 0, "target": 34962 },
    { "buffer": 0, "byteLength": 48, "byteOffset": 48, "target": 34962 },
    { "buffer": 0, "byteLength": 24, "byteOffset": 96, "target": 34963 }
  ],
  "accessors": [
    { "bufferView": 0, "componentType": 5126, "count": 4, "max": [1, 1, 1], "min": [-1, -1, -1], "type": "VEC3" },
    { "bufferView": 1, "componentType": 5126, "count": 4, "type": "VEC3" },
    { "bufferView": 2, "componentType": 5123, "count": 12, "type": "SCALAR" }
  ]
}
